<?xml version="1.0" encoding="utf-8"?>
<!DOCTYPE svg PUBLIC "-//W3C//DTD SVG 1.0//EN" "http://www.w3.org/TR/2001/REC-SVG-20010904/DTD/svg10.dtd">
<svg version="1.0" xmlns="http://www.w3.org/2000/svg" width="100%" height="100%" viewBox="0 0 3000 3000" preserveAspectRatio="xMidYMid meet">
 <g fill="#ffffff">
  <path d="M0 1500 l0 -1500 1500 0 1500 0 0 1500 0 1500 -1500 0 -1500 0 0 -1500z m1083.40 646.58 c28.42 -7.62 50.68 -30.18 46.29 -47.46 -4.98 -20.21 -25.49 -31.93 -76.17 -43.95 -36.04 -8.50 -46.88 -13.77 -51.86 -25.49 -4.39 -10.84 -1.76 -33.40 4.98 -40.72 8.50 -9.67 34.28 -15.23 61.23 -13.77 23.14 1.46 36.91 6.15 49.80 16.70 4.10 3.22 3.81 2.34 -1.17 -3.22 -8.20 -9.38 -28.71 -19.63 -45.41 -22.56 -24.90 -4.39 -55.37 5.86 -71.19 24.32 -12.01 13.48 -14.36 24.90 -7.91 38.38 8.50 18.46 23.14 25.49 78.81 38.67 39.26 9.08 48.34 16.11 48.34 36.91 0 27.25 -16.11 35.45 -66.21 33.98 -28.13 -1.17 -33.69 -2.34 -46.29 -9.38 -7.91 -4.39 -14.94 -7.91 -15.53 -7.91 -4.69 0 8.20 10.25 20.21 16.41 25.20 12.89 46.58 15.53 72.07 9.08z m302.34 -6.74 c27.83 -12.30 46.58 -37.50 51.56 -67.97 l2.05 -12.30 -41.60 0 c-34.28 0 -41.31 0.59 -41.31 4.39 0 3.52 6.45 4.39 34.57 4.98 33.98 0.88 34.28 0.88 35.16 8.20 2.93 19.34 -14.65 46.29 -36.04 55.96 -16.41 7.62 -59.77 7.62 -76.17 0 -27.54 -12.30 -41.31 -41.89 -38.96 -83.50 2.64 -53.03 30.47 -77.64 84.38 -74.41 22.56 1.46 36.62 6.45 49.22 17.87 3.52 3.22 6.45 4.69 6.45 2.93 0 -4.39 -11.72 -14.06 -26.37 -21.68 -10.55 -5.57 -17.87 -7.03 -36.62 -7.03 -20.51 0 -25.49 1.17 -39.26 8.79 -72.66 40.14 -64.16 141.21 14.65 169.63 16.70 6.15 36.04 4.10 58.30 -5.86z m-184.57 -81.74 c0 -87.30 0 -89.36 -5.86 -89.36 -5.86 0 -5.86 2.05 -5.86 89.36 0 87.30 0 89.36 5.86 89.36 5.86 0 5.86 -2.05 5.86 -89.36z m308.20 15.23 l-1.17 -72.66 12.01 0.88 11.72 0.88 47.75 71.78 c41.31 62.11 48.93 71.78 55.96 72.66 l7.91 0.88 -0.59 -90.23 c-0.88 -87.89 -0.88 -90.23 -6.74 -90.23 -5.57 0 -5.86 2.34 -6.74 72.66 l-0.59 72.66 -10.25 -0.88 c-9.67 -0.88 -12.01 -3.81 -58.01 -72.66 -40.72 -61.23 -48.93 -71.78 -55.08 -71.78 l-7.03 0 -0.88 90.23 -0.59 90.23 6.45 -0.88 6.74 -0.88 -0.88 -72.66z m315.82 68.26 c0 -5.57 -2.05 -5.86 -49.51 -5.86 l-49.22 0 -2.05 -10.84 c-0.88 -6.15 -1.76 -23.44 -1.76 -38.09 l0 -27.25 48.63 0 c44.53 0 48.34 -0.29 47.46 -4.98 -0.88 -4.69 -5.86 -5.27 -47.17 -6.15 l-46 -0.88 0 -34.86 0 -35.16 48.34 0 c41.02 0 48.34 -0.59 48.34 -4.39 0 -3.81 -8.20 -4.39 -55.66 -4.39 l-55.66 0 0 89.36 0 89.36 57.13 0 c55.08 0 57.13 -0.29 57.13 -5.86z m123.05 -79.10 l0 -84.96 33.69 0 c28.13 0 33.69 -0.88 33.69 -4.39 0 -3.81 -10.25 -4.39 -74.71 -4.39 -64.45 0 -74.71 0.59 -74.71 4.39 0 3.52 5.57 4.39 33.69 4.39 l33.69 0 0 82.91 c0 45.70 0.88 84.08 2.05 84.96 0.88 1.17 4.39 2.05 7.32 2.05 4.98 0 5.27 -4.39 5.27 -84.96z m139.75 -427.73 c10.84 0 15.23 4.10 135.64 124.51 l124.51 124.51 56.54 -56.54 56.25 -56.25 -186.91 -186.91 -186.62 -186.62 -124.51 124.51 c-122.75 122.75 -124.80 124.51 -136.23 124.51 -11.72 0 -13.48 -1.76 -175.78 -164.06 -90.23 -90.23 -165.23 -164.06 -166.41 -164.06 -1.46 0 -73.83 71.19 -161.13 158.20 -140.04 139.75 -159.38 158.20 -167.29 158.20 -7.91 0 -23.44 -14.36 -127.73 -118.65 l-118.65 -118.36 -64.45 63.87 c-35.45 34.86 -118.36 118.07 -184.28 184.28 l-120.12 120.70 52.73 53.32 c28.71 29.59 54.20 54.79 56.54 56.25 2.93 1.76 34.57 -28.13 120.12 -113.09 63.87 -63.57 119.53 -117.77 123.93 -120.41 4.39 -2.93 12.30 -4.98 17.58 -4.98 8.79 0 20.21 10.25 126.86 117.19 l117.19 117.19 159.67 -159.67 c150.88 -150.88 160.25 -159.67 169.92 -159.67 9.67 0.29 20.80 10.84 175.78 166.70 l165.53 166.41 125.10 -125.39 c121 -121.58 125.39 -125.68 136.23 -125.68z m43.36 -330.18 c9.67 -2.64 22.85 -8.50 29 -13.18 6.45 -4.39 13.18 -8.20 15.23 -8.20 1.76 0 13.18 -10.25 25.20 -23.14 35.45 -36.91 55.37 -87.01 50.68 -126.27 -7.03 -56.54 -46.29 -111.62 -96.68 -135.06 -31.05 -14.65 -77.05 -22.56 -82.03 -14.36 -0.88 1.76 -7.03 2.93 -13.77 2.93 -6.45 0 -16.41 2.05 -22.27 4.69 -6.15 2.64 -14.65 6.15 -19.63 8.50 -15.23 6.45 -44.24 30.18 -56.54 46.29 -16.11 20.80 -29.30 49.51 -34.57 76.46 -4.39 20.21 -4.10 24.32 0.29 46.29 14.94 75 75.29 131.84 147.95 139.75 22.56 2.64 33.69 1.76 57.13 -4.69z m-1169.53 -2.93 c24.90 -7.91 26.66 -9.08 52.73 -34.57 29.88 -29 44.82 -53.03 53.03 -85.25 16.11 -62.40 -13.77 -133.89 -72.07 -172.27 -19.34 -12.89 -50.10 -24.61 -70.90 -26.95 -42.19 -4.98 -94.63 15.23 -129.20 50.10 -67.68 67.38 -67.68 157.62 0 225.88 35.16 35.45 68.55 50.10 115.72 50.68 19.63 0.29 30.47 -1.46 50.68 -7.62z m574.80 -82.62 c91.99 -24.32 165.82 -118.65 166.11 -212.70 0 -29.88 -3.22 -46.29 -15.23 -76.76 -26.95 -67.09 -85.55 -118.95 -155.57 -137.11 -26.07 -7.03 -81.74 -4.10 -110.16 5.57 -71.78 24.32 -123.05 76.17 -145.90 148.24 -11.13 33.98 -11.72 78.52 -2.05 112.21 19.34 67.38 67.68 122.17 131.54 148.54 42.19 17.58 92.58 22.27 131.25 12.01z"/>
 </g>
 <g fill="#0a7f4f">
  <path d="M1654.39 1730.86 l-169.34 -170.51 -164.65 164.65 -164.65 164.65 -121.88 -121.88 -121.88 -121.88 -8.50 5.27 c-4.69 2.64 -62.70 59.18 -129.20 125.10 l-120.41 120.12 -8.50 -7.03 c-4.39 -4.10 -33.69 -33.11 -65.04 -65.04 l-57.13 -57.71 124.51 -125.10 c68.26 -68.55 155.27 -155.57 193.07 -193.36 l68.85 -68.26 123.05 123.05 123.05 123.05 161.72 -161.13 c94.92 -94.63 163.77 -161.13 166.99 -161.13 3.22 0 74.12 68.85 172.27 166.99 91.70 91.99 168.16 166.99 169.92 166.99 1.76 0 60.35 -57.42 130.37 -127.44 70.02 -70.02 128.61 -127.44 130.37 -127.44 3.81 0 388.18 384.38 388.18 388.18 0 1.76 -28.71 31.64 -63.87 66.80 l-63.57 63.57 -128.91 -128.91 c-70.90 -70.90 -129.79 -128.91 -131.25 -128.91 -1.17 0 -60.06 58.01 -130.66 128.91 -70.61 70.90 -129.49 128.91 -130.96 128.61 -1.46 0 -78.81 -76.76 -171.97 -170.21z"/>
 </g>
 <g fill="#51b64f">
  <path d="M2065.43 1318.36 c-73.24 -9.08 -132.71 -65.04 -147.66 -138.28 -5.86 -27.83 -5.86 -41.89 -0.29 -67.97 5.27 -25.20 18.46 -53.91 34.28 -74.12 12.30 -16.11 41.31 -39.84 56.54 -46.29 4.98 -2.34 13.48 -5.86 19.63 -8.50 5.86 -2.64 15.82 -4.69 22.27 -4.69 6.74 0 12.89 -1.17 13.77 -2.93 2.93 -4.39 45.12 -3.52 64.45 1.46 58.30 15.23 101.37 54.20 121.58 109.86 23.73 65.04 9.38 130.08 -40.43 181.93 -12.01 12.89 -23.44 23.14 -25.20 23.14 -2.05 0 -8.79 3.81 -15.23 8.20 -21.97 15.82 -64.45 23.14 -103.71 18.16z"/>
  <path d="M863.09 1313.96 c-43.36 -12.01 -90.23 -50.10 -109.28 -89.65 -60.06 -122.75 32.81 -259.86 170.21 -250.78 87.30 5.57 157.03 80.86 157.62 170.51 0.29 53.32 -16.41 91.11 -58.30 131.84 -26.07 25.49 -27.83 26.66 -52.73 34.57 -22.27 6.74 -30.47 7.91 -59.47 7.62 -18.46 0 -40.14 -2.05 -48.05 -4.10z"/>
  <path d="M1438.18 1229 c-81.45 -16.11 -149.41 -79.69 -173.14 -161.72 -5.57 -19.04 -6.74 -29.59 -6.45 -63.87 0.29 -36.33 1.17 -43.95 8.20 -65.92 23.44 -72.36 74.41 -123.93 146.78 -148.54 28.71 -9.67 99.32 -12.89 127.15 -5.27 70.02 18.46 128.61 70.02 155.57 137.11 12.89 32.23 15.53 47.17 15.53 85.55 0 29.59 -1.46 39.26 -7.91 61.52 -4.39 14.36 -12.60 34.86 -18.16 45.70 -28.42 53.91 -84.38 99.61 -140.33 114.26 -24.61 6.45 -77.64 7.03 -107.23 1.17z"/>
 </g>
 <g fill="#000000">
  <path d="M1027.44 2155.96 c-21.39 -4.98 -45.41 -19.92 -52.15 -32.52 -2.34 -4.10 -0.59 -7.03 6.74 -13.77 l9.67 -8.50 6.15 6.74 c12.30 13.18 30.18 19.92 56.84 21.39 28.71 1.46 43.36 -2.93 51.56 -15.53 3.81 -5.86 4.39 -9.08 1.76 -14.65 -4.98 -10.84 -13.77 -14.94 -52.73 -24.61 -42.19 -10.25 -59.77 -17.87 -68.26 -29.88 -12.60 -17.87 -10.84 -46.29 3.81 -62.99 24.32 -27.54 74.71 -34.57 114.84 -15.53 12.30 5.57 31.05 23.14 31.05 28.42 0 1.46 -4.10 6.15 -9.08 11.13 l-8.79 8.50 -6.15 -8.20 c-9.96 -13.77 -27.25 -20.80 -52.15 -20.80 -36.04 -0.29 -58.30 15.82 -49.80 36.04 4.69 11.43 14.94 16.41 55.08 26.37 19.63 4.69 41.31 11.72 48.05 15.53 32.52 17.87 35.16 59.18 4.98 80.27 -20.51 14.36 -60.94 19.92 -91.41 12.60z"/>
  <path d="M1318.65 2154.49 c-20.21 -7.32 -34.57 -17.58 -45.70 -32.81 -28.71 -38.96 -26.66 -97.85 4.10 -133.01 37.50 -42.48 108.11 -43.95 147.36 -3.22 l10.84 11.13 -11.13 9.38 -11.13 9.38 -8.50 -8.79 c-32.81 -34.86 -92.58 -27.83 -112.21 13.18 -19.04 38.96 -4.39 88.77 30.47 104.59 24.90 11.43 60.64 4.98 78.22 -13.77 8.79 -9.38 17.87 -28.71 14.94 -31.64 -1.17 -0.88 -16.70 -1.76 -35.16 -1.76 l-33.11 0 0 -13.18 0 -13.18 50.10 0 50.39 0 -1.46 19.92 c-2.64 36.91 -20.80 63.87 -52.73 78.22 -23.14 10.55 -55.66 12.89 -75.29 5.57z"/>
  <path d="M1180.66 2058.40 l0 -97.85 14.65 -1.17 14.36 -0.88 0.88 95.21 c0.59 52.44 0.29 96.97 -0.29 99.02 -0.59 2.05 -6.15 3.52 -15.23 3.52 l-14.36 0 0 -97.85z"/>
  <path d="M1488.87 2057.52 l0.88 -99.02 16.11 0 15.82 0 48.63 72.95 48.34 72.66 1.46 -72.66 1.46 -72.95 14.65 0 14.65 0 0.88 99.02 0.59 99.02 -16.70 -0.88 -16.99 -0.88 -47.75 -71.78 c-26.07 -39.55 -48.93 -72.07 -50.39 -72.66 -1.76 -0.59 -2.64 26.66 -2.05 71.78 l0.59 72.66 -15.53 0.88 -15.23 0.88 0.59 -99.02z"/>
  <path d="M1702.73 2057.81 l0.88 -98.44 55.66 -0.59 c73.54 -0.88 71.78 -1.46 71.78 14.65 l0 12.89 -48.34 0 -48.34 0 0 26.37 0 26.07 46.29 0.88 46 0.88 0.88 14.06 0.88 13.77 -48.34 0 -48.63 0 0 18.46 c0 9.96 0.88 23.14 1.76 29.30 l2.05 10.84 49.22 0 49.51 0 0 14.65 0 14.65 -65.92 0 -65.92 0 0.59 -98.44z"/>
  <path d="M1926.86 2154.20 c-1.17 -0.88 -2.05 -39.26 -2.05 -84.96 l0 -82.91 -33.69 0 -33.69 0 0 -13.18 0 -13.18 22.85 0 c12.30 0 49.80 -0.59 83.50 -0.88 l60.64 -0.59 0 14.06 0 13.77 -33.69 0 -33.69 0 0 84.96 0 84.96 -14.06 0 c-7.91 0 -15.23 -0.88 -16.11 -2.05z"/>
 </g>
</svg>